<?xml version="1.0" standalone="no"?>
<svg xmlns="http://www.w3.org/2000/svg" viewBox="0 0 110.497 36" width="110.497" height="36"><g fill="#2D4263" color="#2D4263" transform="translate(0 3.9999999999999982) scale(0.5600001)"><svg width="50.0" height="50.0" x="0.0" y="0.0" viewBox="0 0 50 50"><path fill="currentColor" fill-rule="evenodd" d="M24.968 0C11.178 0 0 11.178 0 24.968c0 7.13 2.993 13.555 7.784 18.104V28.647h4.083v17.576a24.911 24.911 0 0 0 5.424 2.506V15.22h4.083v34.456c1.174.17 2.373.262 3.594.262.616 0 1.225-.03 1.83-.075V34.606h4.083v14.62a24.785 24.785 0 0 0 5.424-2.014V23.783h4.083V44.6c5.81-4.572 9.549-11.663 9.549-19.63C49.937 11.178 38.757 0 24.967 0"></path></svg></g><path fill="#2D4263" fill-rule="nonzero" d="M5.18 19.61L0 19.61L0 0.17L4.46 0.17Q5.78 0.17 6.76 0.46Q7.73 0.74 8.38 1.34Q9.02 1.94 9.34 2.87Q9.65 3.79 9.65 5.04L9.65 5.04Q9.65 6.24 9.35 7.12Q9.05 7.99 8.44 8.50Q7.82 9 6.86 9.14L6.86 9.14Q8.04 9.41 8.76 10.04Q9.48 10.68 9.83 11.68Q10.18 12.67 10.18 14.06L10.18 14.06Q10.18 15.31 9.89 16.34Q9.60 17.38 8.99 18.10Q8.38 18.82 7.43 19.21Q6.48 19.61 5.18 19.61L5.18 19.61ZM2.71 10.34L2.71 17.66L4.54 17.66Q6.36 17.66 6.97 16.81Q7.58 15.96 7.58 14.06L7.58 14.06Q7.58 12.84 7.26 12.01Q6.94 11.18 6.23 10.76Q5.52 10.34 4.32 10.34L4.32 10.34L2.71 10.34ZM2.71 2.18L2.71 8.28L4.32 8.28Q5.47 8.28 6.12 7.96Q6.77 7.63 7.03 6.91Q7.30 6.19 7.30 5.04L7.30 5.04Q7.30 3.70 6.89 3.10Q6.48 2.50 5.62 2.34Q4.75 2.18 3.36 2.18L3.36 2.18L2.71 2.18ZM14.35 19.80L14.35 19.80Q13.54 19.80 13.08 19.37Q12.62 18.94 12.44 18.29Q12.26 17.64 12.26 16.97L12.26 16.97L12.26 5.74L14.83 5.74L14.83 16.20Q14.83 16.94 15.05 17.36Q15.26 17.78 15.94 17.78L15.94 17.78Q16.37 17.78 16.84 17.53Q17.30 17.28 17.74 16.92L17.74 16.92L17.74 5.74L20.30 5.74L20.30 19.61L17.74 19.61L17.74 18.24Q17.06 18.89 16.21 19.34Q15.36 19.80 14.35 19.80ZM28.01 19.82L28.01 19.82Q25.94 19.82 24.80 18.96Q23.66 18.10 23.22 16.63Q22.78 15.17 22.78 13.37L22.78 13.37L22.78 6.50Q22.78 4.54 23.22 3.07Q23.66 1.61 24.80 0.80Q25.94 0 28.01 0L28.01 0Q29.83 0 30.90 0.67Q31.97 1.34 32.44 2.59Q32.90 3.84 32.90 5.59L32.90 5.59L32.90 7.13L30.34 7.13L30.34 5.76Q30.34 4.68 30.23 3.85Q30.12 3.02 29.64 2.57Q29.16 2.11 28.03 2.11L28.03 2.11Q26.88 2.11 26.35 2.60Q25.82 3.10 25.67 4.00Q25.51 4.90 25.51 6.10L25.51 6.10L25.51 13.80Q25.51 15.26 25.75 16.12Q25.99 16.97 26.54 17.33Q27.10 17.69 28.03 17.69L28.03 17.69Q29.14 17.69 29.62 17.20Q30.10 16.70 30.22 15.84Q30.34 14.98 30.34 13.82L30.34 13.82L30.34 12.38L32.90 12.38L32.90 13.82Q32.90 15.60 32.47 16.96Q32.04 18.31 30.98 19.07Q29.93 19.82 28.01 19.82ZM37.78 19.80L37.78 19.80Q36.96 19.80 36.34 19.33Q35.71 18.86 35.35 18.13Q34.99 17.40 34.99 16.58L34.99 16.58Q34.99 15.29 35.42 14.40Q35.86 13.51 36.61 12.90Q37.37 12.29 38.36 11.83Q39.36 11.38 40.46 10.94L40.46 10.94L40.46 9.96Q40.46 9.12 40.37 8.57Q40.27 8.02 39.97 7.74Q39.67 7.46 39.07 7.46L39.07 7.46Q38.54 7.46 38.22 7.70Q37.90 7.94 37.75 8.39Q37.61 8.83 37.61 9.43L37.61 9.43L37.61 10.13L35.06 10.03Q35.11 7.73 36.12 6.64Q37.13 5.54 39.24 5.54L39.24 5.54Q41.30 5.54 42.17 6.67Q43.03 7.80 43.03 9.94L43.03 9.94L43.03 16.27Q43.03 16.92 43.07 17.52Q43.10 18.12 43.16 18.64Q43.22 19.15 43.27 19.61L43.27 19.61L40.92 19.61Q40.85 19.22 40.74 18.64Q40.63 18.05 40.58 17.57L40.58 17.57Q40.34 18.38 39.66 19.09Q38.98 19.80 37.78 19.80ZM38.78 17.59L38.78 17.59Q39.17 17.59 39.50 17.38Q39.84 17.16 40.10 16.88Q40.37 16.61 40.46 16.44L40.46 16.44L40.46 12.50Q39.86 12.84 39.34 13.18Q38.81 13.51 38.41 13.88Q38.02 14.26 37.79 14.72Q37.56 15.19 37.56 15.79L37.56 15.79Q37.56 16.63 37.87 17.11Q38.18 17.59 38.78 17.59ZM48.07 19.61L45.50 19.61L45.50 5.74L48.07 5.74L48.07 7.10Q48.77 6.46 49.61 6Q50.45 5.54 51.46 5.54L51.46 5.54Q52.30 5.54 52.74 5.98Q53.18 6.41 53.36 7.06Q53.54 7.70 53.54 8.38L53.54 8.38L53.54 19.61L50.98 19.61L50.98 9.12Q50.98 8.38 50.76 7.97Q50.54 7.56 49.87 7.56L49.87 7.56Q49.44 7.56 48.97 7.81Q48.50 8.06 48.07 8.42L48.07 8.42L48.07 19.61ZM59.26 19.80L59.26 19.80Q57.50 19.80 56.64 18.52Q55.78 17.23 55.78 14.16L55.78 14.16L55.78 11.47Q55.78 9.89 56.04 8.53Q56.30 7.18 57.04 6.36Q57.77 5.54 59.18 5.54L59.18 5.54Q59.88 5.54 60.46 5.86Q61.03 6.17 61.49 6.62L61.49 6.62L61.49 0.17L64.06 0.17L64.06 19.61L61.49 19.61L61.49 18.72Q61.03 19.20 60.49 19.50Q59.95 19.80 59.26 19.80ZM59.90 17.78L59.90 17.78Q60.26 17.78 60.67 17.65Q61.08 17.52 61.49 17.26L61.49 17.26L61.49 8.16Q61.15 7.92 60.74 7.74Q60.34 7.56 59.86 7.56L59.86 7.56Q58.97 7.56 58.66 8.41Q58.34 9.26 58.34 10.46L58.34 10.46L58.34 14.38Q58.34 15.34 58.45 16.12Q58.56 16.90 58.90 17.34Q59.23 17.78 59.90 17.78ZM66.74 23.09L66.43 23.09L66.43 21.12Q67.37 21.12 67.92 21.04Q68.47 20.95 68.71 20.72Q68.95 20.50 68.95 20.09L68.95 20.09Q68.95 19.87 68.78 19.13Q68.62 18.38 68.42 17.54L68.42 17.54L65.64 5.74L68.23 5.74L70.10 16.10L71.90 5.74L74.50 5.74L71.18 20.38Q70.97 21.38 70.39 21.97Q69.82 22.56 68.92 22.82Q68.02 23.09 66.74 23.09L66.74 23.09Z" transform="translate(36, 8.196)"></path></svg>